<?xml version="1.0" encoding="utf-8"?>
<!-- Generator: Adobe Illustrator 24.1.1, SVG Export Plug-In . SVG Version: 6.00 Build 0)  -->
<svg version="1.1" id="Camada_1" xmlns="http://www.w3.org/2000/svg" xmlns:xlink="http://www.w3.org/1999/xlink" x="0px" y="0px"
	 viewBox="0 0 100 100" style="enable-background:new 0 0 100 100;" xml:space="preserve">
<style type="text/css">
	.st0{fill:#E6EEFF;}
	.st1{fill:#C5D6FF;}
	.st2{fill:#435EFF;}
</style>
<path class="st0" d="M89.6,37.1c-1,0.9-2,1.9-3,2.8c-1.9,1.7-3.7,3.4-5.6,5.2C74.7,51.1,68.3,57,62,62.9c-3.5,3.3-7,6.5-10.5,9.8
	c-5.1,4.8-10.2,9.5-15.3,14.3c-0.4,0.4-0.7,0.3-1,0c-3.2-2.9-6.5-5.9-9.7-8.8c-4.3-3.9-8.7-7.8-13-11.6c-1.1-1-2.2-1.9-3.2-2.9
	c-0.6-0.5-0.6-0.6,0.2-0.9c6.2-2,12.5-4,18.7-6c13.5-4.4,27-8.7,40.5-13.1c6.7-2.2,13.5-4.3,20.2-6.5c0.2-0.1,0.4-0.1,0.6-0.2
	C89.5,37.1,89.5,37.1,89.6,37.1z"/>
<path class="st1" d="M11.6,57.8c0.7-0.6,1.3-1.2,1.8-1.7c2.9-2.7,5.8-5.4,8.7-8.1c5.6-5.2,11.2-10.5,16.8-15.7
	c2.9-2.7,5.8-5.5,8.7-8.2C53,19,58.5,13.9,63.9,8.8c0.4-0.3,0.8-0.7,1.1-1.1c0.4-0.5,0.8-0.5,1.2,0c3,3.1,6,6.1,9,9.1
	c3.9,4,7.8,8,11.8,11.9c1.1,1.1,2.1,2.2,3.1,3.2c0.5,0.5,0.4,0.6-0.2,0.8c-6.6,2.1-13.1,4.2-19.7,6.3c-5.8,1.9-11.6,3.7-17.4,5.6
	c-13.4,4.3-26.7,8.6-40.1,12.9C12.4,57.8,12.1,57.9,11.6,57.8z"/>
<path class="st1" d="M91,40.4c-0.5,1.3-1,2.6-1.5,4c-7,17.9-14.1,35.9-21.1,53.8c-0.6,1.7-0.3,1.5-2,0.9c-8.6-3.3-17.3-6.6-25.9-9.9
	c-1.5-0.6-1.4-0.4-0.3-1.5C45.4,82.8,50.7,77.9,56,73c2.8-2.6,5.5-5.2,8.3-7.8c5.2-4.9,10.4-9.7,15.6-14.6c2.7-2.5,5.4-5.1,8.2-7.7
	c0.9-0.9,1.8-1.7,2.8-2.6C90.9,40.4,90.9,40.4,91,40.4z"/>
<path class="st0" d="M6.8,57c1-2.3,2-4.6,3.1-6.9C15.6,37,21.5,24,27.3,10.9c1.5-3.3,2.9-6.5,4.3-9.8c0.3-0.7,0.6-0.9,1.4-0.8
	c9.5,1.5,19.1,3,28.6,4.5c0.1,0,0.3,0,0.4,0.1c0.2,0,0.4,0,0.4,0.2c0.1,0.2-0.1,0.3-0.3,0.4c-1.3,1.3-2.7,2.6-4,3.8
	c-1.9,1.8-3.8,3.5-5.7,5.3c-6,5.6-11.9,11.1-17.8,16.7c-3.8,3.6-7.6,7.1-11.5,10.7C17.8,47,12.5,51.9,7.2,56.9
	C7.1,56.9,7,57,6.9,57.1C6.9,57,6.8,57,6.8,57z"/>
<path class="st2" d="M71.3,47.1c0,0.2,0,0.3,0,0.5c0,5.6,0,11.2,0,16.7c0,3.1-2,5.6-5,6.2c-0.4,0.1-0.9,0.1-1.4,0.1
	c-10.1,0-20.3,0-30.4,0c-3.2,0-5.6-2-6.2-5c-0.1-0.4-0.1-0.8-0.1-1.2c0-5.6,0-11.2,0-16.8c0-0.1,0-0.3,0-0.4
	C42.6,47.1,56.9,47.1,71.3,47.1z M47.9,59.2c-0.9-0.9-1.7-1.7-2.5-2.5c-0.9-0.9-2.1-0.9-2.9-0.1c-0.8,0.8-0.8,2,0.1,2.9
	c1.2,1.2,2.5,2.5,3.7,3.7c0.9,0.9,2.1,0.9,3,0c1.3-1.3,2.6-2.6,3.9-3.9c1.3-1.3,2.5-2.5,3.8-3.8c0.5-0.5,0.8-1.2,0.6-1.9
	c-0.2-0.7-0.6-1.3-1.4-1.5c-0.8-0.2-1.4,0-2,0.6c-2,2-4,4-6,6C48.1,58.8,48,59,47.9,59.2z"/>
<path class="st2" d="M28.3,43.1C28.2,43,28.2,43,28.3,43.1c0-2.1-0.1-4.2,0-6.3c0.2-3,2.9-5.4,5.9-5.4c1.3,0,2.5,0,3.9,0
	c0-0.7,0-1.4,0-2c0-0.8,0.6-1.6,1.4-1.8c0.8-0.2,1.7,0,2.1,0.7c0.2,0.4,0.4,0.8,0.4,1.3c0.1,0.6,0,1.2,0,1.8c2,0,3.9,0,5.9,0
	c0-0.7,0-1.4,0-2c0-1,0.8-1.7,1.8-1.9c0.9-0.1,1.8,0.5,2.1,1.4c0.1,0.3,0.1,0.7,0.1,1c0,0.5,0,1,0,1.5c2,0,3.9,0,5.9,0
	c0-0.6,0-1.3,0-1.9c0-1.3,1.1-2.2,2.4-2c0.9,0.2,1.5,1,1.5,1.9c0,0.6,0,1.3,0,2c0.7,0,1.3,0,1.9,0c1,0,2,0,3,0.2
	c2.8,0.6,4.8,2.9,4.8,5.9c0,1.8,0,3.7,0,5.5c0,0.1,0,0.1,0,0.2C57,43.1,42.6,43.1,28.3,43.1z"/>
</svg>
