<?xml version="1.0" encoding="utf-8"?>
<!-- Generator: Adobe Illustrator 24.1.1, SVG Export Plug-In . SVG Version: 6.00 Build 0)  -->
<svg version="1.1" id="Camada_1" xmlns="http://www.w3.org/2000/svg" xmlns:xlink="http://www.w3.org/1999/xlink" x="0px" y="0px"
	 viewBox="0 0 1366 613.7" style="enable-background:new 0 0 1366 613.7;" xml:space="preserve">
<style type="text/css">
	.st0{opacity:0.13;}
	.st1{opacity:0.47;}
	.st2{fill:#FFFFFF;}
</style>
<g id="Group_192" transform="translate(1477.17 -268.072)" class="st0">
	<g id="Group_187" transform="translate(-1329.909 577.02)" class="st1">
		<path id="Path_49" class="st2" d="M43.1,10.5C37.9,0.8,25.9-2.8,16.2,2.4c0,0,0,0,0,0C6.5,7.6-3.8,23.2,1.4,32.9S22,34.9,33,35.1
			C48.3,35.2,48.3,20.1,43.1,10.5z"/>
	</g>
	<circle id="Ellipse_39" class="st2" cx="-1185.9" cy="407.6" r="13.2"/>
	<circle id="Ellipse_40" class="st2" cx="-1133.8" cy="412.5" r="5.5"/>
	<g id="Group_188" transform="matrix(0.174, 0.985, -0.985, 0.174, -860.49, 744.85)" class="st1">
		<path id="Path_49-2" class="st2" d="M43.1,10.5C37.9,0.8,25.9-2.8,16.2,2.4c0,0,0,0,0,0C6.5,7.6-3.8,23.2,1.4,32.9
			S22,34.9,33,35.1C48.3,35.2,48.3,20.1,43.1,10.5z"/>
	</g>
	<circle id="Ellipse_41" class="st2" cx="-947.2" cy="783.7" r="13.2"/>
	<circle id="Ellipse_42" class="st2" cx="-828" cy="556.4" r="5.5"/>
	<circle id="Ellipse_43" class="st2" cx="-751.2" cy="504.1" r="5.5"/>
	<g id="Group_189" transform="matrix(-0.996, -0.087, 0.087, -0.996, -624.762, 603.656)" class="st1">
		<path id="Path_49-3" class="st2" d="M43.1,10.5C37.9,0.8,25.9-2.8,16.2,2.4c0,0,0,0,0,0C6.5,7.6-3.8,23.2,1.4,32.9
			S22,34.9,33,35.1C48.3,35.2,48.3,20.1,43.1,10.5z"/>
	</g>
	<circle id="Ellipse_44" class="st2" cx="-1450" cy="745.3" r="27.1"/>
	<circle id="Ellipse_45" class="st2" cx="-513.7" cy="764.1" r="19.8"/>
	<circle id="Ellipse_46" class="st2" cx="-474.8" cy="706.9" r="5.5"/>
	<g id="Group_190" transform="matrix(0.174, 0.985, -0.985, 0.174, -401.05, 829.733)" class="st1">
		<path id="Path_49-4" class="st2" d="M43.1,10.5C37.9,0.8,25.9-2.8,16.2,2.4c0,0,0,0,0,0C6.5,7.6-3.8,23.2,1.4,32.9
			S22,34.9,33,35.1C48.3,35.2,48.3,20.1,43.1,10.5z"/>
	</g>
	<circle id="Ellipse_47" class="st2" cx="-1433.1" cy="466.5" r="5.5"/>
	<path id="Path_278" class="st2" d="M-751.4,323.4c-15.3,0-27.7-12.4-27.7-27.7c0-7.3,2.9-14.4,8.1-19.6c10.8-10.8,28.3-10.8,39.1,0
		c10.8,10.8,10.8,28.3,0,39.1C-737,320.5-744.1,323.4-751.4,323.4z M-751.4,275c-11.5,0-20.7,9.3-20.7,20.7s9.3,20.7,20.7,20.7
		s20.7-9.3,20.7-20.7C-730.7,284.3-739.9,275-751.4,275L-751.4,275z"/>
	<path id="Path_279" class="st2" d="M-872.7,373.3c-4.9,0-8.9-4-8.9-8.9c0-2.4,0.9-4.6,2.6-6.3c3.6-3.4,9.2-3.3,12.6,0.3
		c3.3,3.4,3.3,8.9,0,12.3C-868.1,372.4-870.4,373.3-872.7,373.3z M-872.7,357.7c-3.7,0-6.7,3-6.7,6.7s3,6.7,6.7,6.7
		c3.7,0,6.7-3,6.7-6.7C-866,360.7-869,357.7-872.7,357.7L-872.7,357.7z"/>
	<circle id="Ellipse_48" class="st2" cx="-474.6" cy="394.5" r="13.2"/>
	<g id="Group_191" transform="matrix(-0.996, -0.087, 0.087, -0.996, -332.041, 541.514)" class="st1">
		<path id="Path_49-5" class="st2" d="M43.1,10.5C37.9,0.8,25.9-2.8,16.2,2.4c0,0,0,0,0,0C6.5,7.6-3.8,23.2,1.4,32.9
			S22,34.9,33,35.1C48.3,35.2,48.3,20.1,43.1,10.5z"/>
	</g>
	<circle id="Ellipse_49" class="st2" cx="-183.5" cy="636.5" r="32.9"/>
	<circle id="Ellipse_50" class="st2" cx="-116.7" cy="711.8" r="5.5"/>
</g>
</svg>
