<?xml version="1.0" encoding="utf-8"?>
<!-- Generator: Adobe Illustrator 24.1.1, SVG Export Plug-In . SVG Version: 6.00 Build 0)  -->
<svg version="1.1" id="Layer_1" xmlns="http://www.w3.org/2000/svg" xmlns:xlink="http://www.w3.org/1999/xlink" x="0px" y="0px"
	 viewBox="0 0 200 200.1" style="enable-background:new 0 0 200 200.1;" xml:space="preserve">
<style type="text/css">
	.st0{fill:#FFFFFF;}
</style>
<path class="st0" d="M17.5,2c25,0,49.7,0,74.7,0c0,0.6-0.2,1-0.2,1.6c0,15.2,0,30.3,0,45.5c0,4.5,2.3,6.8,6.8,6.8
	c14.9,0,29.7,0,44.8,0c0.8,0,1.2,0,2.3,0c0,7,0,13.7,0,20.7c-0.4,0-0.8,0-1,0c-18-1-33.8,4.3-47.3,16c-0.8,0.6-1.8,1-2.7,1
	c-10.6,0-21.1,0-31.9,0c-6.3,0-12.9,0-19.2,0c-3.9,0-6.6,3.5-5.5,7.4c0.8,2.7,3.1,4.1,5.9,4.1c13.5,0,26.8,0,40.3,0
	c0.6,0,1.2,0,2.3,0c-10,15.4-13.7,31.7-10.2,49.3c3.3,17.6,12.5,31.5,27.4,42.4c-1,0-1.8,0-2.7,0c-26.8,0-53.6,0-80.3,0
	c-5.5,0-7.4-1.8-7.4-7.4c0-60,0-119.8,0-179.8C13,5.9,14.3,3.4,17.5,2z M64.6,69.4c-7,0-13.9,0-20.7,0c-3.9,0-6.3,2.3-6.3,5.5
	c0,3.3,2.7,5.5,6.3,5.5c13.7,0,27.4,0,40.9,0c3.9,0,6.3-2.3,6.3-5.5c0-3.3-2.7-5.5-6.3-5.5C78.1,69.4,71.4,69.4,64.6,69.4z
	 M49.1,171.7c2,0,4.1,0,5.9,0c3.3,0,5.5-2.5,5.7-5.5c0-3.3-2.5-5.5-5.7-5.7c-3.9,0-8,0-12.1,0c-3.3,0-5.5,2.5-5.7,5.5
	c0,3.3,2.5,5.5,5.7,5.7C45.2,171.7,47.2,171.7,49.1,171.7z"/>
<path class="st0" d="M195,142c-0.2,30.3-24.8,54.7-54.9,54.5c-30.1-0.2-54.5-25-54.3-54.9c0.2-30.3,24.8-54.7,54.9-54.5
	C170.9,87.2,195.2,111.9,195,142z M154.1,123.4c-0.4-0.8-1-2.5-2.3-3.3c-1.2-1-3.1-1.6-4.5-2.9c-0.6-0.4-1.2-1-1.4-1.6
	c-0.8-3.1-3.1-5.1-5.7-4.9c-2.9,0.2-4.9,2.3-5.5,5.3c-0.2,0.8-0.6,1.4-1.2,1.8c-5.3,2.9-7.8,7.2-8.2,12.9c-0.2,5.7,2.7,9.8,7.8,12.3
	c3.3,1.6,6.6,2.9,9.8,4.3c3.1,1.2,3.7,3.7,2,6.3c-1,1.8-2.9,2.7-4.9,2.7c-2.7,0-5.1-0.6-7.4-1.8c-2.9-1.6-6.1-1-7.8,1.6
	c-1.6,2.9-1,6.1,2,7.8c2,1,4.1,2,6.3,3.1c1,0.4,1.2,0.8,1.4,1.6c0.6,3.1,2.9,5.1,5.7,4.9c2.9-0.2,5.1-2.3,5.5-5.3
	c0.2-1.2,0.6-1.8,1.6-2.5c6.6-3.3,9.8-8.6,9.6-15.8c-0.2-7.2-4.3-11.7-10.9-14.1c-2.9-1-5.5-2.3-8-3.3c-1-0.4-1.8-1-1.4-2.5
	c0.2-1.2,1-2.3,2.3-2.7c2.3-0.6,4.3-0.2,6.1,1.2c1.8,1.2,3.9,1.4,5.9,0.4C153.3,128.3,154.1,126.7,154.1,123.4z"/>
<path class="st0" d="M141.8,44.6c-12.5,0-25.2,0-38.3,0c0-12.9,0-25.6,0-38.3C116.2,19,129.1,31.9,141.8,44.6z"/>
</svg>
