<?xml version="1.0" encoding="utf-8"?>
<!-- Generator: Adobe Illustrator 24.1.1, SVG Export Plug-In . SVG Version: 6.00 Build 0)  -->
<svg version="1.1" id="Layer_1" xmlns="http://www.w3.org/2000/svg" xmlns:xlink="http://www.w3.org/1999/xlink" x="0px" y="0px"
	 viewBox="0 0 200 200.1" style="enable-background:new 0 0 200 200.1;" xml:space="preserve">
<style type="text/css">
	.st0{fill:#FFFFFF;}
</style>
<path class="st0" d="M200,110.3c-1,5-4.3,8.1-8.3,10.8c-19.7,13.1-39.4,26.3-59.1,39.4c-5.6,3.7-11.8,6.8-17.6,10
	c-6.8,4.1-13.7,4.8-21.4,3.1c-18.2-3.9-36.5-7.1-54.9-11c-1.4-0.4-1.9,0-2.5,1.2c-3.7,7.1-9.5,11.4-18,11.2c-5.6-0.2-11.4,0-17.2,0
	c0-29.6,0-58.9,0-88.5c5.8,0,11.6,0,17.2,0c1.4,0,3.1,0,4.4,0.4c6.8,1.4,11,5.6,13.9,11.6c0.4,1,0.8,1.7,1.2,3.1
	c2.1-0.4,4.3-0.8,6.4-1c3.1-0.6,6.4-1,9.3-1.2c5.4-0.6,10.6,1.5,15.6,3.1c13.7,4.6,27.6,9.1,41.5,13.9c1.9,0.8,3.9,1.5,5.6,2.9
	c3.7,2.5,5,6,3.5,9.9c-1.4,3.9-5,6.6-9.1,6.4c-5.4-0.4-10.8-1-16.2-1.7c-8.7-1-17.2-2.1-25.7-3.3c-0.6,0-1-0.2-1.9-0.2
	c-0.6,3.5-1,7.1-1.4,10.8c3.3,0.6,6.6,1,9.7,1.2c10.2,1.2,20.7,2.5,30.9,3.9c7.7,1,14.7-0.4,20.1-6.2c8.1-8.7,7.1-21.8-2.3-29
	c-3.1-2.3-7-3.7-10.4-5.4c-0.8-0.4-1.4-0.6-2.5-1c1-0.6,1.4-1,1.9-1.2c6-3.7,11.8-7.1,17.8-10.8c7.1-4.4,14.5-2.9,19.3,4.3
	c0.2,0.2,0.2,0.4,0.6,0.6c2.1-1.2,4.3-2.3,6.2-3.5c7.3-4.3,14.7-2.3,19.1,5c0.2,0.2,0.2,0.4,0.6,0.6c1.2-0.8,2.5-1.4,3.5-2.1
	c7.9-4.8,17.6-1,19.9,8.1c0,0.4,0.2,0.6,0.4,1C200,107.4,200,108.8,200,110.3z"/>
<path class="st0" d="M95.3,88.5c0-1.9,0-3.9,0-5.8c-5.2-1.2-9.9-3.5-12.8-8.3c-1.4-2.5-2.3-5-2.1-8.3c3.7,0,7.1,0,10.8,0
	c0.6,4.1,3.5,5.4,7.1,5.6c2.7,0.2,5.2-0.2,7.9-0.8c2.3-0.4,3.7-1.9,3.9-4.4c0.2-2.7-0.6-4.6-3.1-5.4c-3.1-1.2-6.2-2.1-9.3-3.1
	c-2.5-0.8-5-1.2-7.1-2.3c-7.1-3.1-10.4-7.9-10.2-15.3c0.2-6.6,4.8-12.6,11.2-14.9c1-0.4,2.3-0.8,3.5-1c0-1.7,0-3.7,0-5.6
	c3.7,0,7.1,0,11.2,0c0,1.4,0,2.7,0,4.1c-0.2,1.4,0.4,1.9,1.7,2.3c7,1.9,11.6,6,12.9,13.3c0.2,0.8,0.2,1.5,0.2,2.3c-3.7,0-7.1,0-11,0
	c-0.6-3.9-3.3-5-6.8-5.2c-2.9-0.2-5.6,0-8.5,0.4c-1.7,0.4-3.1,1.5-3.5,3.5c-0.8,2.5-0.2,4.3,2.3,5.2c2.9,1,5.8,1.9,8.9,2.9
	c2.5,0.8,5,1.4,7.5,2.5c7.5,3.1,11.4,9.1,11,17.2c-0.6,7.1-5.2,12.8-13.1,14.5c-1.5,0.4-1.9,1-1.9,2.5c0.2,1.2,0,2.7,0,4.1
	C102.6,88.5,99.1,88.5,95.3,88.5z"/>
</svg>
