<?xml version="1.0" encoding="utf-8"?>
<!-- Generator: Adobe Illustrator 24.1.1, SVG Export Plug-In . SVG Version: 6.00 Build 0)  -->
<svg version="1.1" id="Layer_1" xmlns="http://www.w3.org/2000/svg" xmlns:xlink="http://www.w3.org/1999/xlink" x="0px" y="0px"
	 viewBox="0 0 200 200.1" style="enable-background:new 0 0 200 200.1;" xml:space="preserve">
<style type="text/css">
	.st0{fill:#435EFF;}
</style>
<path class="st0" d="M87.7,0.9c3.9,0.8,7.5,2.2,10.4,4.9c5.9,5.5,8.1,12.2,6.1,19.9c-2,7.7-7.1,12.4-15,14.2
	c-0.6,0.2-1.2,0.2-1.8,0.4c0,0,0,0-0.2,0.2c14,2.6,19.1,13,17.3,28c-3.9,0-7.9,0-11.8,0c-2.4,0-4.1,0.8-5.3,3
	c-2.4,3.9,0.4,8.7,5.3,8.7c4.3,0,8.7,0,13,0c6.1,0,12.4,0,18.5,0c7.9,0,13.6,5.7,13.6,13.2c0,7.5-5.9,13-13.6,13
	c-15.2,0-30.2,0-45.3,0c-7.5,0-13.2-5.1-13.4-12.8c-0.2-11.2-0.4-22.7,0-33.9c0.4-10.3,6.5-16.6,17.7-19.1
	c-4.9-0.8-9.3-2.8-12.4-6.3c-5.1-5.7-6.7-12.2-4.3-19.5C69,7.4,74.1,2.9,81.8,1.3c0.4,0,0.8-0.2,1-0.4C84.3,0.9,86.1,0.9,87.7,0.9z"
	/>
<path class="st0" d="M55.4,102.7c1.6,2.4,3,4.9,4.9,7.1c4.7,5.3,10.8,8.3,17.9,8.3c15.8,0,31.3,0,47.1,0c0.4,0,1,0,1.4,0
	c2.6-1,3.7,0.6,4.7,2.6c17.9,32.3-2.8,73.1-39.2,77.9c-30.2,3.7-56.8-17.3-59.3-47.7c-1.8-19.7,6.1-35.7,21.9-47.5
	C55,102.8,55.4,102.7,55.4,102.7z"/>
<path class="st0" d="M140.7,113.1c6.1,0,11.6,1.8,16.4,5.3c4.5,3.4,7.5,7.7,9.3,13c5.1,15.2,10.1,30.6,15.2,45.7
	c1.6,4.9-1,8.5-6.1,8.5c-6.3,0-12.6,0-18.9,0c-3.5,0-5.5-1.4-6.7-4.7c-1.2-3.5-2.6-7.1-3.5-10.8c-0.2-0.8-0.4-1.8,0-2.6
	c6.1-18.5,4.7-36.3-4.7-53.2C141.1,113.9,140.9,113.7,140.7,113.1z"/>
<path class="st0" d="M54,83.3c-2.6-7.9-7.5-13-15.6-14.6c-1.2-0.2-2.4-0.2-3.4-0.2c-3.5-0.4-6.1-3-5.9-6.1c0.2-3.4,2.8-5.5,6.5-5.5
	c6.3,0,12,2,17.2,5.7c0.4,0.4,1,1,1,1.4C54,70.5,54,77,54,83.3z"/>
</svg>
