<?xml version="1.0" encoding="utf-8"?>
<!-- Generator: Adobe Illustrator 24.1.1, SVG Export Plug-In . SVG Version: 6.00 Build 0)  -->
<svg version="1.1" id="Layer_1" xmlns="http://www.w3.org/2000/svg" xmlns:xlink="http://www.w3.org/1999/xlink" x="0px" y="0px"
	 viewBox="0 0 200 200.1" style="enable-background:new 0 0 200 200.1;" xml:space="preserve">
<style type="text/css">
	.st0{fill:#435EFF;}
</style>
<path class="st0" d="M4.6,116.8c0.4-3.4,1-6.6,1.4-10c1.4-10.9,2.8-21.9,4.2-32.6C11,68.4,15.7,64,21.5,63.8c0.2,0,0.2,0,0.4,0
	c10.9,0,8.2-1.2,15.7,6.4c1,1,2,2.2,3.2,3.6c2-2.2,4-3.8,5.6-6c2.6-3.2,6-4.6,10-4.2c1.6,0.2,3.4,0,5.2,0c-4.4,10.7-4,21.9-5.8,32.6
	c-1,6.4-1.6,12.9-2.6,19.5c-1,7.8,2.4,14.7,9.2,18.5c0.6,0.4,1.2,1.2,1.2,1.8c-1.2,12.9-2.6,25.9-4,38.8
	c-0.8,6.4-5.8,10.6-12.1,10.7c-4.4,0-9,0-13.3,0c-6.4,0-11.3-4.6-11.9-10.7c-1.4-12.1-2.6-24.3-3.8-36.4c-0.4-4.6-1-9.2-1.4-13.9
	c-1.6,0-3.2-0.2-4.8,0c-3.8,0.4-6.4-1.2-8-4.6C4.6,119,4.6,118,4.6,116.8z"/>
<path class="st0" d="M105.3,2.5c2.8,0.8,5.6,1.4,8,2.8c10.4,5.2,15.5,17.1,12.5,28.3c-3,11.1-13.5,18.5-25.1,17.9
	C89.4,50.9,79.8,42.1,78,30.8c-2-13.1,6.8-25.5,20.1-27.7c0.4,0,0.8-0.2,1-0.4C101.3,2.5,103.3,2.5,105.3,2.5z"/>
<path class="st0" d="M166.4,2.5c2.8,0.8,5.6,1.4,8,2.8c10.4,5.2,15.5,17.1,12.5,28.3s-13.5,18.5-25.1,17.9
	c-11.3-0.6-20.9-9.4-22.7-20.7c-2-13.1,6.8-25.5,19.9-27.7c0.4,0,0.8-0.2,1.2-0.4C162.4,2.5,164.4,2.5,166.4,2.5z"/>
<path class="st0" d="M44.2,2.5c3.4,1.2,6.8,2,9.8,3.8c9.8,5.8,13.9,17.7,10.4,28.3C60.7,45.1,50.2,52.3,39,51.3
	c-11.3-1-20.3-9.6-22.1-20.7C14.9,17.4,23.7,5.1,37,2.9c0.4,0,0.8-0.2,1-0.4C40.2,2.5,42.2,2.5,44.2,2.5z"/>
<path class="st0" d="M78.2,124.7c-2,0-4,0-6.2,0c-4.2,0-7-3-6.4-7.2c1.8-14.5,3.8-29.1,5.6-43.6c0.8-5.8,5.6-10.2,11.5-10.4
	c2.4,0,4.8-0.2,7.2,0c1.6,0.2,3.4,1,4.6,2.2c2.6,2.2,5,5,7.6,7.6c2.6-2.6,5-5,7.4-7.4c1.6-1.6,3.4-2.4,5.6-2.4
	c2.8,0.2,5.8,0,8.6,0.4c5,0.8,8.8,5,9.4,10c2,14.5,3.8,29.1,5.6,43.6c0.6,4-2.2,7.2-6.2,7.2c-2,0-4,0-6.4,0
	c-0.2,2.4-0.4,4.6-0.6,6.8c-1.4,17.9-3,35.8-4.4,53.5c-0.6,8.6-5.4,12.9-13.9,12.9c-4,0-7.8,0-11.5,0c-6.6,0-11.5-4.4-12.3-10.9
	c-1-10.4-1.8-20.7-2.6-31.1c-0.8-10-1.6-19.7-2.4-29.7C78.4,125.9,78.4,125.3,78.2,124.7z"/>
<path class="st0" d="M187.3,124.7c-0.6,6.2-1.2,11.9-1.8,17.9c-1.2,10.9-2.2,21.7-3.4,32.6c-0.8,6.2-5.8,10.6-11.9,10.6
	c-4.6,0-9.2,0-13.7,0c-6.2,0-11.1-4.6-11.9-10.7c-1.4-12.9-2.8-25.9-4-38.8c0-0.4,0.2-1.2,0.6-1.4c8.6-4.6,10.9-12.1,9.6-21.3
	c-1.8-13.3-3.4-26.7-5.4-40c-0.4-3.2-1.6-6.2-2.6-9.6c0.6,0,1.6-0.2,2.6-0.2c9.4,0,7.4-0.8,14.1,5.8c1.2,1.2,2.4,2.6,3.8,4.2
	c2.6-2.6,5-5,7.2-7.4c1.6-1.8,3.6-2.6,6.2-2.6c2.8,0.2,5.6,0,8.4,0.4c5,0.8,8.6,5,9.4,10c2,14.5,3.8,29.1,5.6,43.6
	c0.6,4-2.2,7-6.4,7.2C191.7,124.7,189.5,124.7,187.3,124.7z"/>
</svg>
